<svg width="1360" height="620" viewBox="0 0 1360 620" fill="none" xmlns="http://www.w3.org/2000/svg">
  <defs>
    <linearGradient id="bg" x1="0" y1="0" x2="1360" y2="620" gradientUnits="userSpaceOnUse">
      <stop stop-color="#020617"/><stop offset="0.55" stop-color="#0f172a"/><stop offset="1" stop-color="#111827"/>
    </linearGradient>
    <radialGradient id="orange" cx="0" cy="0" r="1" gradientUnits="userSpaceOnUse" gradientTransform="translate(1110 130) rotate(132) scale(520 420)">
      <stop stop-color="#f97316" stop-opacity="0.45"/><stop offset="1" stop-color="#f97316" stop-opacity="0"/>
    </radialGradient>
    <radialGradient id="teal" cx="0" cy="0" r="1" gradientUnits="userSpaceOnUse" gradientTransform="translate(245 470) rotate(-28) scale(530 300)">
      <stop stop-color="#22d3ee" stop-opacity="0.22"/><stop offset="1" stop-color="#22d3ee" stop-opacity="0"/>
    </radialGradient>
    <filter id="shadow" x="-40" y="-40" width="260" height="260" filterUnits="userSpaceOnUse" color-interpolation-filters="sRGB">
      <feDropShadow dx="0" dy="18" stdDeviation="18" flood-color="#000" flood-opacity="0.40"/>
    </filter>
  </defs>
  <rect width="1360" height="620" rx="36" fill="url(#bg)"/>
  <rect width="1360" height="620" rx="36" fill="url(#orange)"/>
  <rect width="1360" height="620" rx="36" fill="url(#teal)"/>
  <g opacity="0.35">
    <path d="M0 110H1360M0 250H1360M0 390H1360M0 530H1360" stroke="#334155"/>
    <path d="M210 0V620M470 0V620M730 0V620M990 0V620M1250 0V620" stroke="#334155"/>
  </g>

  <text x="80" y="94" fill="#fb923c" font-family="Inter, Arial, sans-serif" font-size="26" font-weight="800" letter-spacing="4">HEALTHBITS BRIEF</text>
  <text x="80" y="174" fill="#ffffff" font-family="Inter, Arial, sans-serif" font-size="66" font-weight="900" letter-spacing="-2.5">Datos clínicos,</text>
  <text x="80" y="252" fill="#ffffff" font-family="Inter, Arial, sans-serif" font-size="66" font-weight="900" letter-spacing="-2.5">no PDFs</text>
  <text x="80" y="326" fill="#cbd5e1" font-family="Inter, Arial, sans-serif" font-size="29" font-weight="500">3 ideas para modernizar salud digital</text>
  <text x="80" y="368" fill="#cbd5e1" font-family="Inter, Arial, sans-serif" font-size="29" font-weight="500">sin romper la operación.</text>

  <g transform="translate(595 112)">
    <path d="M140 160H274" stroke="#475569" stroke-width="5" stroke-linecap="round"/>
    <path d="M460 160H594" stroke="#475569" stroke-width="5" stroke-linecap="round"/>
    <path d="M274 160H460" stroke="#f97316" stroke-width="8" stroke-linecap="round"/>

    <g filter="url(#shadow)">
      <rect x="0" y="74" width="150" height="172" rx="22" fill="#111827" stroke="#ef4444" stroke-width="2" stroke-dasharray="8 8"/>
      <text x="34" y="128" fill="#fecaca" font-family="Arial" font-size="22" font-weight="800">PDF</text>
      <path d="M45 158H105M45 181H105M45 204H88" stroke="#64748b" stroke-width="5" stroke-linecap="round"/>
    </g>

    <g filter="url(#shadow)">
      <rect x="285" y="50" width="190" height="220" rx="28" fill="#131c31" stroke="#fb923c" stroke-width="3"/>
      <text x="326" y="122" fill="#fed7aa" font-family="Arial" font-size="22" font-weight="800">Contrato</text>
      <text x="338" y="154" fill="#fed7aa" font-family="Arial" font-size="22" font-weight="800">del dato</text>
      <circle cx="380" cy="205" r="34" fill="#f97316" fill-opacity="0.15" stroke="#f97316" stroke-width="4"/>
      <path d="M363 205L375 216L400 188" stroke="#f97316" stroke-width="6" stroke-linecap="round" stroke-linejoin="round"/>
    </g>

    <g filter="url(#shadow)">
      <rect x="608" y="74" width="174" height="172" rx="28" fill="#052e2b" stroke="#22c55e" stroke-width="3"/>
      <text x="650" y="132" fill="#bbf7d0" font-family="Arial" font-size="22" font-weight="800">Acción</text>
      <text x="643" y="164" fill="#bbf7d0" font-family="Arial" font-size="22" font-weight="800">clínica</text>
      <path d="M650 210H738" stroke="#22c55e" stroke-width="7" stroke-linecap="round"/>
      <path d="M722 192L744 210L722 228" stroke="#22c55e" stroke-width="7" stroke-linecap="round" stroke-linejoin="round"/>
    </g>

    <rect x="78" y="330" width="650" height="86" rx="24" fill="#0f172a" stroke="#334155"/>
    <text x="120" y="383" fill="#e2e8f0" font-family="Arial" font-size="25" font-weight="800">PDF → dato estructurado → decisión medible</text>
  </g>
</svg>