<svg xmlns="http://www.w3.org/2000/svg" viewBox="0 0 1200 630" width="1200" height="630">
  <defs>
    <style>
      @import url('https://fonts.googleapis.com/css2?family=JetBrains+Mono:wght@400;600;700&amp;display=swap');
      text { font-family: 'JetBrains Mono', 'Courier New', monospace; }
    </style>

    <pattern id="grid" width="40" height="40" patternUnits="userSpaceOnUse">
      <path d="M 40 0 L 0 0 0 40" fill="none" stroke="#1e293b" stroke-width="0.4"/>
    </pattern>

    <filter id="glow-ts" x="-30%" y="-30%" width="160%" height="160%">
      <feGaussianBlur stdDeviation="6" result="blur"/>
      <feComposite in="SourceGraphic" in2="blur" operator="over"/>
    </filter>
    <filter id="glow-drizzle" x="-30%" y="-30%" width="160%" height="160%">
      <feGaussianBlur stdDeviation="8" result="blur"/>
      <feComposite in="SourceGraphic" in2="blur" operator="over"/>
    </filter>
    <filter id="glow-pg" x="-30%" y="-30%" width="160%" height="160%">
      <feGaussianBlur stdDeviation="6" result="blur"/>
      <feComposite in="SourceGraphic" in2="blur" operator="over"/>
    </filter>
    <filter id="text-glow">
      <feGaussianBlur stdDeviation="3" result="blur"/>
      <feComposite in="SourceGraphic" in2="blur" operator="over"/>
    </filter>

    <!-- Arrow marker -->
    <marker id="arr-w" markerWidth="10" markerHeight="7" refX="9" refY="3.5" orient="auto">
      <polygon points="0 0, 10 3.5, 0 7" fill="#334155"/>
    </marker>

    <!-- TS glow circle -->
    <radialGradient id="glow-ts-bg" cx="50%" cy="50%" r="50%">
      <stop offset="0%" stop-color="#3178c6" stop-opacity="0.15"/>
      <stop offset="100%" stop-color="#3178c6" stop-opacity="0"/>
    </radialGradient>
    <!-- Drizzle glow -->
    <radialGradient id="glow-drizzle-bg" cx="50%" cy="50%" r="50%">
      <stop offset="0%" stop-color="#c5f74f" stop-opacity="0.12"/>
      <stop offset="100%" stop-color="#c5f74f" stop-opacity="0"/>
    </radialGradient>
    <!-- PG glow -->
    <radialGradient id="glow-pg-bg" cx="50%" cy="50%" r="50%">
      <stop offset="0%" stop-color="#336791" stop-opacity="0.15"/>
      <stop offset="100%" stop-color="#336791" stop-opacity="0"/>
    </radialGradient>

    <linearGradient id="title-grad" x1="0%" y1="0%" x2="100%" y2="0%">
      <stop offset="0%" stop-color="#ffffff"/>
      <stop offset="55%" stop-color="#e2e8f0"/>
      <stop offset="100%" stop-color="#94a3b8"/>
    </linearGradient>
  </defs>

  <!-- ─── BACKGROUND ─────────────────────────── -->
  <rect width="1200" height="630" fill="#050a14"/>
  <rect width="1200" height="630" fill="url(#grid)"/>

  <!-- Ambient glow blobs -->
  <ellipse cx="210" cy="280" rx="220" ry="200" fill="url(#glow-ts-bg)"/>
  <ellipse cx="600" cy="290" rx="220" ry="200" fill="url(#glow-drizzle-bg)"/>
  <ellipse cx="990" cy="280" rx="220" ry="200" fill="url(#glow-pg-bg)"/>

  <!-- Top accent line -->
  <rect x="0" y="0" width="1200" height="3" fill="#c5f74f" opacity="0.8"/>

  <!-- ─── HEADER ──────────────────────────────── -->
  <text x="60" y="68" font-size="42" font-weight="700" fill="url(#title-grad)" letter-spacing="-1">
    PostgreSQL + Drizzle ORM
  </text>
  <text x="62" y="100" font-size="16" fill="#64748b" letter-spacing="0.5">
    Mi stack favorito para proyectos con IA · TypeScript · pgvector · Examya
  </text>

  <!-- ─── CONNECTING ARROWS ──────────────────── -->
  <line x1="388" y1="295" x2="432" y2="295" stroke="#334155" stroke-width="2" marker-end="url(#arr-w)"/>
  <line x1="778" y1="295" x2="822" y2="295" stroke="#334155" stroke-width="2" marker-end="url(#arr-w)"/>

  <!-- ─── CARD 1: TYPESCRIPT ────────────────── -->
  <!-- bg shadow glow -->
  <rect x="52" y="128" width="336" height="308" rx="14" fill="#3178c6" opacity="0.06" filter="url(#glow-ts)"/>
  <!-- card -->
  <rect x="56" y="132" width="328" height="300" rx="12" fill="#080f1e" stroke="#3178c6" stroke-width="1.5" stroke-opacity="0.6"/>
  <!-- header bar -->
  <rect x="56" y="132" width="328" height="36" rx="12" fill="#3178c6" fill-opacity="0.18"/>
  <rect x="56" y="148" width="328" height="20" fill="#3178c6" fill-opacity="0.18"/>

  <!-- TS logo dot -->
  <rect x="72" y="140" width="18" height="18" rx="3" fill="#3178c6"/>
  <text x="74" y="153" font-size="10" font-weight="700" fill="white">TS</text>

  <text x="100" y="154" font-size="13" font-weight="600" fill="#3178c6">TypeScript · Type Safety</text>

  <!-- Code block -->
  <rect x="70" y="178" width="300" height="234" rx="8" fill="#0d1b2e" stroke="#1e3a5f" stroke-width="1"/>

  <!-- Line numbers -->
  <text x="80" y="198" font-size="10" fill="#334155">1</text>
  <text x="80" y="214" font-size="10" fill="#334155">2</text>
  <text x="80" y="230" font-size="10" fill="#334155">3</text>
  <text x="80" y="246" font-size="10" fill="#334155">4</text>
  <text x="80" y="262" font-size="10" fill="#334155">5</text>
  <text x="80" y="278" font-size="10" fill="#334155">6</text>
  <text x="80" y="294" font-size="10" fill="#334155">7</text>
  <text x="80" y="310" font-size="10" fill="#334155">8</text>
  <text x="80" y="326" font-size="10" fill="#334155">9</text>
  <text x="80" y="342" font-size="10" fill="#334155">10</text>
  <text x="80" y="358" font-size="10" fill="#334155">11</text>
  <text x="80" y="374" font-size="10" fill="#334155">12</text>
  <text x="80" y="390" font-size="10" fill="#334155">13</text>

  <!-- Code content -->
  <text x="100" y="198" font-size="11" fill="#c792ea">export</text>
  <text x="140" y="198" font-size="11" fill="#82aaff"> const</text>
  <text x="176" y="198" font-size="11" fill="#eeffff"> embeddings</text>

  <text x="100" y="214" font-size="11" fill="#82aaff">  = pgTable</text>
  <text x="163" y="214" font-size="11" fill="#89ddff">(</text>
  <text x="169" y="214" font-size="11" fill="#f78c6c">'embeddings'</text>
  <text x="254" y="214" font-size="11" fill="#89ddff">, {</text>

  <text x="100" y="230" font-size="11" fill="#eeffff">    id:</text>
  <text x="126" y="230" font-size="11" fill="#82aaff"> serial</text>
  <text x="165" y="230" font-size="11" fill="#89ddff">(</text>
  <text x="171" y="230" font-size="11" fill="#f78c6c">'id'</text>
  <text x="194" y="230" font-size="11" fill="#89ddff">)</text>
  <text x="200" y="230" font-size="11" fill="#c792ea">.primaryKey</text>
  <text x="289" y="230" font-size="11" fill="#89ddff">(),</text>

  <text x="100" y="246" font-size="11" fill="#eeffff">    content:</text>
  <text x="155" y="246" font-size="11" fill="#82aaff"> text</text>
  <text x="180" y="246" font-size="11" fill="#89ddff">(</text>
  <text x="186" y="246" font-size="11" fill="#f78c6c">'content'</text>
  <text x="242" y="246" font-size="11" fill="#89ddff">)</text>
  <text x="248" y="246" font-size="11" fill="#c792ea">.notNull</text>
  <text x="305" y="246" font-size="11" fill="#89ddff">(),</text>

  <text x="100" y="262" font-size="11" fill="#eeffff">    embedding:</text>
  <text x="168" y="262" font-size="11" fill="#82aaff"> vector</text>
  <text x="210" y="262" font-size="11" fill="#89ddff">(</text>
  <text x="216" y="262" font-size="11" fill="#f78c6c">'embedding'</text>
  <text x="290" y="262" font-size="11" fill="#89ddff">, {</text>

  <text x="100" y="278" font-size="11" fill="#64748b">    // pgvector</text>

  <text x="100" y="294" font-size="11" fill="#eeffff">    dimensions:</text>
  <text x="180" y="294" font-size="11" fill="#f78c6c"> 1536</text>
  <text x="214" y="294" font-size="11" fill="#89ddff"> })</text>
  <text x="233" y="294" font-size="11" fill="#c792ea">.notNull</text>
  <text x="293" y="294" font-size="11" fill="#89ddff">(),</text>

  <text x="100" y="310" font-size="11" fill="#eeffff">    metadata:</text>
  <text x="160" y="310" font-size="11" fill="#82aaff"> json</text>
  <text x="185" y="310" font-size="11" fill="#89ddff">(</text>
  <text x="191" y="310" font-size="11" fill="#f78c6c">'metadata'</text>
  <text x="253" y="310" font-size="11" fill="#89ddff">)</text>
  <text x="259" y="310" font-size="11" fill="#c792ea">,</text>

  <text x="100" y="326" font-size="11" fill="#eeffff">    createdAt:</text>
  <text x="162" y="326" font-size="11" fill="#82aaff"> timestamp</text>
  <text x="230" y="326" font-size="11" fill="#89ddff">(</text>
  <text x="236" y="326" font-size="11" fill="#f78c6c">'created_at'</text>
  <text x="310" y="326" font-size="11" fill="#89ddff">)</text>

  <text x="100" y="342" font-size="11" fill="#c792ea">      .defaultNow</text>
  <text x="225" y="342" font-size="11" fill="#89ddff">()</text>

  <text x="100" y="358" font-size="11" fill="#89ddff">  }</text>
  <text x="112" y="358" font-size="11" fill="#89ddff">)</text>

  <!-- Type inference badge -->
  <rect x="100" y="374" width="270" height="22" rx="4" fill="#1e3a5f"/>
  <text x="115" y="388" font-size="10" fill="#82aaff">// ✓ tipos inferidos — sin npx generate</text>

  <!-- ─── CARD 2: DRIZZLE ORM ───────────────── -->
  <rect x="436" y="128" width="336" height="308" rx="14" fill="#c5f74f" opacity="0.05" filter="url(#glow-drizzle)"/>
  <rect x="440" y="132" width="328" height="300" rx="12" fill="#080f1e" stroke="#c5f74f" stroke-width="1.5" stroke-opacity="0.7"/>
  <rect x="440" y="132" width="328" height="36" rx="12" fill="#c5f74f" fill-opacity="0.12"/>
  <rect x="440" y="148" width="328" height="20" fill="#c5f74f" fill-opacity="0.12"/>

  <!-- Drizzle drop icon -->
  <ellipse cx="460" cy="150" rx="6" ry="8" fill="#c5f74f"/>
  <polygon points="454,148 466,148 460,158" fill="#c5f74f"/>

  <text x="476" y="154" font-size="13" font-weight="600" fill="#c5f74f">Drizzle ORM · Query Builder</text>

  <rect x="454" y="178" width="300" height="234" rx="8" fill="#0d1b0d" stroke="#1a3320" stroke-width="1"/>

  <text x="464" y="198" font-size="10" fill="#334155">1</text>
  <text x="464" y="214" font-size="10" fill="#334155">2</text>
  <text x="464" y="230" font-size="10" fill="#334155">3</text>
  <text x="464" y="246" font-size="10" fill="#334155">4</text>
  <text x="464" y="262" font-size="10" fill="#334155">5</text>
  <text x="464" y="278" font-size="10" fill="#334155">6</text>
  <text x="464" y="294" font-size="10" fill="#334155">7</text>
  <text x="464" y="310" font-size="10" fill="#334155">8</text>
  <text x="464" y="326" font-size="10" fill="#334155">9</text>
  <text x="464" y="342" font-size="10" fill="#334155">10</text>
  <text x="464" y="358" font-size="10" fill="#334155">11</text>

  <text x="484" y="198" font-size="11" fill="#c792ea">const</text>
  <text x="518" y="198" font-size="11" fill="#eeffff"> similar</text>
  <text x="565" y="198" font-size="11" fill="#89ddff"> =</text>
  <text x="577" y="198" font-size="11" fill="#c792ea"> await</text>

  <text x="484" y="214" font-size="11" fill="#eeffff">  db</text>
  <text x="501" y="214" font-size="11" fill="#c5f74f">.select</text>
  <text x="549" y="214" font-size="11" fill="#89ddff">()</text>

  <text x="484" y="230" font-size="11" fill="#eeffff">  .</text>
  <text x="495" y="230" font-size="11" fill="#c5f74f">from</text>
  <text x="522" y="230" font-size="11" fill="#89ddff">(</text>
  <text x="528" y="230" font-size="11" fill="#eeffff">embeddings</text>
  <text x="611" y="230" font-size="11" fill="#89ddff">)</text>

  <text x="484" y="246" font-size="11" fill="#eeffff">  .</text>
  <text x="495" y="246" font-size="11" fill="#c5f74f">where</text>
  <text x="531" y="246" font-size="11" fill="#89ddff">(</text>

  <text x="484" y="262" font-size="11" fill="#eeffff">    sql</text>
  <text x="507" y="262" font-size="11" fill="#f78c6c">`embedding &lt;=&gt;</text>

  <text x="484" y="278" font-size="11" fill="#f78c6c">    ${</text>
  <text x="508" y="278" font-size="11" fill="#eeffff">embedding</text>
  <text x="572" y="278" font-size="11" fill="#f78c6c">}</text>
  <text x="581" y="278" font-size="11" fill="#f78c6c"> &lt; 0.3`</text>

  <text x="484" y="294" font-size="11" fill="#89ddff">  )</text>

  <text x="484" y="310" font-size="11" fill="#eeffff">  .</text>
  <text x="495" y="310" font-size="11" fill="#c5f74f">limit</text>
  <text x="526" y="310" font-size="11" fill="#89ddff">(</text>
  <text x="532" y="310" font-size="11" fill="#f78c6c">5</text>
  <text x="540" y="310" font-size="11" fill="#89ddff">)</text>

  <!-- Benefits -->
  <rect x="484" y="326" width="132" height="20" rx="4" fill="#1a3320"/>
  <text x="494" y="339" font-size="10" fill="#c5f74f">↑ 30% más rápido</text>

  <rect x="484" y="352" width="148" height="20" rx="4" fill="#1a3320"/>
  <text x="494" y="365" font-size="10" fill="#c5f74f">↑ menos RAM por query</text>

  <!-- Drizzle drop decorations -->
  <ellipse cx="720" cy="380" rx="4" ry="5" fill="#c5f74f" opacity="0.4"/>
  <ellipse cx="735" cy="372" rx="3" ry="4" fill="#c5f74f" opacity="0.25"/>
  <ellipse cx="748" cy="385" rx="3.5" ry="4.5" fill="#c5f74f" opacity="0.3"/>

  <!-- ─── CARD 3: POSTGRESQL ────────────────── -->
  <rect x="820" y="128" width="324" height="308" rx="14" fill="#336791" opacity="0.06" filter="url(#glow-pg)"/>
  <rect x="824" y="132" width="316" height="300" rx="12" fill="#080f1e" stroke="#336791" stroke-width="1.5" stroke-opacity="0.7"/>
  <rect x="824" y="132" width="316" height="36" rx="12" fill="#336791" fill-opacity="0.18"/>
  <rect x="824" y="148" width="316" height="20" fill="#336791" fill-opacity="0.18"/>

  <!-- PG elephant simplified icon -->
  <ellipse cx="845" cy="150" rx="9" ry="8" fill="#336791"/>
  <ellipse cx="845" cy="144" rx="4" ry="4" fill="#336791"/>
  <rect x="840" y="154" width="4" height="8" rx="2" fill="#336791"/>
  <rect x="847" y="154" width="4" height="8" rx="2" fill="#336791"/>

  <text x="862" y="154" font-size="13" font-weight="600" fill="#4a9fd4">PostgreSQL · pgvector · ACID</text>

  <!-- Features grid -->
  <rect x="838" y="178" width="288" height="234" rx="8" fill="#06111e" stroke="#0c2340" stroke-width="1"/>

  <!-- Feature 1: ACID -->
  <rect x="850" y="192" width="120" height="60" rx="8" fill="#0c2340"/>
  <text x="910" y="212" font-size="11" font-weight="600" fill="#4a9fd4" text-anchor="middle">ACID</text>
  <text x="910" y="228" font-size="9" fill="#64748b" text-anchor="middle">Datos médicos</text>
  <text x="910" y="242" font-size="9" fill="#64748b" text-anchor="middle">100% consistentes</text>

  <!-- Feature 2: pgvector -->
  <rect x="982" y="192" width="120" height="60" rx="8" fill="#0c2340"/>
  <text x="1042" y="212" font-size="11" font-weight="600" fill="#a78bfa" text-anchor="middle">pgvector</text>
  <text x="1042" y="228" font-size="9" fill="#64748b" text-anchor="middle">Embeddings IA</text>
  <text x="1042" y="242" font-size="9" fill="#64748b" text-anchor="middle">dims: 1536</text>

  <!-- Similarity search visualization -->
  <rect x="850" y="264" width="252" height="68" rx="8" fill="#0c2340"/>
  <text x="976" y="282" font-size="10" font-weight="600" fill="#64748b" text-anchor="middle">Búsqueda semántica (cosine distance)</text>

  <!-- Vector dots visualization -->
  <circle cx="876" cy="310" r="4" fill="#a78bfa" opacity="0.9"/>
  <circle cx="900" cy="298" r="6" fill="#a78bfa" opacity="0.7"/>
  <circle cx="926" cy="315" r="3" fill="#a78bfa" opacity="0.5"/>
  <circle cx="950" cy="305" r="5" fill="#4a9fd4" opacity="0.8"/>
  <circle cx="975" cy="295" r="7" fill="#c5f74f" opacity="0.6"/>
  <circle cx="1002" cy="312" r="4" fill="#a78bfa" opacity="0.6"/>
  <circle cx="1028" cy="300" r="5" fill="#a78bfa" opacity="0.7"/>
  <circle cx="1055" cy="308" r="3" fill="#4a9fd4" opacity="0.5"/>
  <circle cx="1078" cy="295" r="5" fill="#a78bfa" opacity="0.4"/>
  <!-- Query point highlighted -->
  <circle cx="950" cy="305" r="9" fill="none" stroke="#c5f74f" stroke-width="1.5" opacity="0.8"/>
  <!-- Distance lines to nearest -->
  <line x1="950" y1="305" x2="975" y2="295" stroke="#c5f74f" stroke-width="1" opacity="0.5"/>
  <line x1="950" y1="305" x2="926" y2="315" stroke="#c5f74f" stroke-width="1" opacity="0.4"/>
  <line x1="950" y1="305" x2="900" y2="298" stroke="#c5f74f" stroke-width="1" opacity="0.3"/>

  <!-- Performance badge -->
  <rect x="850" y="344" width="120" height="54" rx="8" fill="#0c2340"/>
  <text x="910" y="364" font-size="11" font-weight="600" fill="#4a9fd4" text-anchor="middle">Performance</text>
  <text x="910" y="380" font-size="9" fill="#64748b" text-anchor="middle">Miles de queries</text>
  <text x="910" y="392" font-size="9" fill="#64748b" text-anchor="middle">diarias · Examya</text>

  <!-- Migrations badge -->
  <rect x="982" y="344" width="120" height="54" rx="8" fill="#0c2340"/>
  <text x="1042" y="364" font-size="11" font-weight="600" fill="#4a9fd4" text-anchor="middle">Migrations</text>
  <text x="1042" y="380" font-size="9" fill="#64748b" text-anchor="middle">Schema evoluciona</text>
  <text x="1042" y="392" font-size="9" fill="#64748b" text-anchor="middle">sin fricción</text>

  <!-- ─── BOTTOM BADGES ──────────────────────── -->
  <!-- Separator line -->
  <line x1="60" y1="498" x2="1140" y2="498" stroke="#1e293b" stroke-width="1"/>

  <!-- Badge 1: TypeScript -->
  <rect x="60" y="512" width="130" height="30" rx="6" fill="#0d1b36" stroke="#3178c6" stroke-width="1" stroke-opacity="0.6"/>
  <text x="88" y="531" font-size="11" font-weight="600" fill="#3178c6" text-anchor="middle">⬡ TypeScript</text>
  <text x="130" y="531" font-size="11" fill="#3178c6"> 5.x</text>

  <!-- Badge 2: pgvector -->
  <rect x="205" y="512" width="130" height="30" rx="6" fill="#1a0d36" stroke="#a78bfa" stroke-width="1" stroke-opacity="0.6"/>
  <text x="270" y="531" font-size="11" font-weight="600" fill="#a78bfa" text-anchor="middle">◈ pgvector</text>

  <!-- Badge 3: NestJS -->
  <rect x="350" y="512" width="130" height="30" rx="6" fill="#1a0d1a" stroke="#e0234e" stroke-width="1" stroke-opacity="0.6"/>
  <text x="415" y="531" font-size="11" font-weight="600" fill="#e0234e" text-anchor="middle">⬡ NestJS</text>

  <!-- Badge 4: Examya -->
  <rect x="495" y="512" width="130" height="30" rx="6" fill="#0d1b2e" stroke="#22d3ee" stroke-width="1" stroke-opacity="0.6"/>
  <text x="560" y="531" font-size="11" font-weight="600" fill="#22d3ee" text-anchor="middle">⚕ Examya</text>

  <!-- Badge 5: 40% faster types -->
  <rect x="640" y="512" width="175" height="30" rx="6" fill="#0d2014" stroke="#c5f74f" stroke-width="1" stroke-opacity="0.5"/>
  <text x="727" y="531" font-size="11" fill="#c5f74f" text-anchor="middle">↑ 40% tipos más rápido</text>

  <!-- Badge 6: 30% faster queries -->
  <rect x="830" y="512" width="175" height="30" rx="6" fill="#0d2014" stroke="#c5f74f" stroke-width="1" stroke-opacity="0.5"/>
  <text x="917" y="531" font-size="11" fill="#c5f74f" text-anchor="middle">↑ 30% queries en dev</text>

  <!-- Blog URL -->
  <text x="1140" y="531" font-size="11" fill="#334155" text-anchor="end">mariohealthbits.dev</text>

  <!-- ─── DECORATIVE ELEMENTS ───────────────── -->
  <!-- Faint + signs between cards -->
  <text x="415" y="302" font-size="28" font-weight="300" fill="#1e293b" text-anchor="middle">+</text>
  <text x="805" y="302" font-size="28" font-weight="300" fill="#1e293b" text-anchor="middle">+</text>

  <!-- Corner dots -->
  <circle cx="20" cy="20" r="2" fill="#334155"/>
  <circle cx="1180" cy="20" r="2" fill="#334155"/>
  <circle cx="20" cy="610" r="2" fill="#334155"/>
  <circle cx="1180" cy="610" r="2" fill="#334155"/>

</svg>
